<svg width="32" height="32" viewBox="0 0 32 32" fill="none" xmlns="http://www.w3.org/2000/svg">
<g clip-path="url(#clip0_23_199)">
<path d="M15.7268 2.06734C15.8979 1.97755 16.1021 1.97755 16.2732 2.06734L29.6853 9.10689C29.8788 9.20844 30 9.40891 30 9.6274V23.6129C30 23.8314 29.8788 24.0318 29.6853 24.1334L16.2732 31.1729C16.1021 31.2627 15.8979 31.2627 15.7268 31.1729L2.31465 24.1334C2.12119 24.0318 2 23.8314 2 23.6129V9.6274C2 9.40891 2.12119 9.20844 2.31465 9.10689L15.7268 2.06734Z" fill="#0A192F"/>
<path d="M20.1878 12.1619L19.8069 13.5445H16.3927L15.9835 16.4649H18.9463L18.7629 17.8476H15.786L15.2217 21.9108H13.3735L14.742 12.1619H20.1878Z" fill="#59E3C5"/>
<path d="M29.9177 8.66417L16.5056 1.62462C16.189 1.45846 15.811 1.45846 15.4944 1.62462L2.08228 8.66417C1.72426 8.85208 1.5 9.22306 1.5 9.6274V23.6129C1.5 24.0172 1.72426 24.3882 2.08228 24.5761L15.4944 31.6157C15.811 31.7818 16.189 31.7818 16.5056 31.6157L29.9177 24.5761C30.2757 24.3882 30.5 24.0172 30.5 23.6129V9.6274C30.5 9.22306 30.2757 8.85208 29.9177 8.66417Z" stroke="#59E3C5"/>
</g>
<defs>
<clipPath id="clip0_23_199">
<rect width="32" height="32" fill="white"/>
</clipPath>
</defs>
</svg>
