<svg width="51" height="52" viewBox="0 0 51 52" fill="none" xmlns="http://www.w3.org/2000/svg">
<path d="M25.0353 1.24395C25.3263 1.09121 25.6738 1.09121 25.9648 1.24395L48.7805 13.2191C49.1096 13.3918 49.3157 13.7328 49.3157 14.1045V37.8955C49.3157 38.2672 49.1096 38.6082 48.7805 38.781L25.9648 50.7561C25.6738 50.9088 25.3263 50.9088 25.0353 50.7561L2.21959 38.781C1.89048 38.6082 1.68433 38.2672 1.68433 37.8955V14.1045C1.68433 13.7328 1.89048 13.3918 2.21959 13.2191L25.0353 1.24395Z" fill="#0A192F"/>
<path d="M32.624 18.416L31.976 20.768H26.168L25.472 25.736H30.512L30.2 28.088H25.136L24.176 35H21.032L23.36 18.416H32.624Z" fill="#59E3C5"/>
<path d="M49.0128 12.7764L26.1971 0.801223C25.7606 0.572118 25.2394 0.572119 24.8029 0.801223L1.98722 12.7764C1.49355 13.0355 1.18433 13.547 1.18433 14.1045V37.8955C1.18433 38.453 1.49355 38.9646 1.98722 39.2237L24.8029 51.1988C25.2394 51.4279 25.7606 51.4279 26.1971 51.1988L49.0128 39.2237C49.5065 38.9646 49.8157 38.453 49.8157 37.8955V14.1045C49.8157 13.547 49.5065 13.0355 49.0128 12.7764Z" stroke="#59E3C5"/>
</svg>
